# xmcd
# 
# Track frame offsets:
#     150
#     14727
#     36077
#     64915
#     88152
#     108190
#     168075
#     216885
#     251160
#     291897
#     309387
# 
# Disc length: 4573
# 
# Revision: 17
# Processed by: cddbd v1.5.2PL0 Copyright (c) Steve Scherf et al.
# Submitted via: fre:ac v1.0.31
# 
DISCID=9b11db0b
DTITLE=Stevie Ray Vaughan - Live At Montreux 1982 and 1985 Disc 2
DYEAR=1985
DGENRE=Blues
TTITLE0=Scuttle Buttin'
TTITLE1=Say What!
TTITLE2=Ain't Gone n' Give Up on Love
TTITLE3=Pride and Joy
TTITLE4=Mary Had a Little Lamb
TTITLE5=Tin Pan Alley (aka "Roughest Place In Town") (ft Johnny Copeland)
TTITLE6=Voodoo Chile (Slight Return)
TTITLE7=Texas Flood
TTITLE8=Life Without You
TTITLE9=Gone Home
TTITLE10=Couldn't Stand the Weather
EXTD=YEAR: 1985
EXTT0=
EXTT1=
EXTT2=
EXTT3=
EXTT4=
EXTT5=
EXTT6=
EXTT7=
EXTT8=
EXTT9=
EXTT10=
PLAYORDER=
